<?xml version="1.0" encoding="UTF-8" standalone="no"?>
<!-- Created with Inkscape (http://www.inkscape.org/) -->

<svg
   width="64"
   height="64"
   viewBox="0 0 16.933334 16.933333"
   version="1.1"
   id="svg5"
   xml:space="preserve"
   inkscape:version="1.2.2 (b0a8486541, 2022-12-01)"
   sodipodi:docname="logo.svg"
   inkscape:export-filename="logo-48.png"
   inkscape:export-xdpi="72"
   inkscape:export-ydpi="72"
   xmlns:inkscape="http://www.inkscape.org/namespaces/inkscape"
   xmlns:sodipodi="http://sodipodi.sourceforge.net/DTD/sodipodi-0.dtd"
   xmlns="http://www.w3.org/2000/svg"
   xmlns:svg="http://www.w3.org/2000/svg"><sodipodi:namedview
     id="namedview7"
     pagecolor="#ffffff"
     bordercolor="#666666"
     borderopacity="1.0"
     inkscape:showpageshadow="2"
     inkscape:pageopacity="0.0"
     inkscape:pagecheckerboard="0"
     inkscape:deskcolor="#d1d1d1"
     inkscape:document-units="mm"
     showgrid="false"
     inkscape:zoom="2.3041444"
     inkscape:cx="107.63214"
     inkscape:cy="88.536117"
     inkscape:window-width="1920"
     inkscape:window-height="1163"
     inkscape:window-x="4176"
     inkscape:window-y="0"
     inkscape:window-maximized="1"
     inkscape:current-layer="layer1"
     showguides="false" /><defs
     id="defs2" /><g
     inkscape:label="Layer 1"
     inkscape:groupmode="layer"
     id="layer1"
     transform="translate(-69.682498,-166.07237)"><g
       id="g2109"
       transform="matrix(0.35769763,0,0,0.35769763,45.021817,107.13875)"><path
         d="m 87.482988,190.07201 -10.27555,-4.53395 v -1.48307 l 10.27555,-5.12718 v 2.47884 l -7.076358,3.28394 7.076358,2.90258 z"
         id="path2099"
         style="font-weight:bold;font-size:21.1867px;line-height:1.25;-inkscape-font-specification:'sans-serif Bold';stroke-width:0.794499" /><path
         d="m 89.326242,187.59317 7.076358,-2.90258 -7.076358,-3.28394 v -2.47884 l 10.27555,5.12718 v 1.48307 l -10.27555,4.53395 z"
         id="path2101"
         style="font-weight:bold;font-size:21.1867px;line-height:1.25;-inkscape-font-specification:'sans-serif Bold';stroke-width:0.794499" /><path
         d="m 88.339072,166.07237 h 0.0059 v 0.003 c 5.149974,0.001 9.813279,2.09036 13.187858,5.46571 3.369,3.37048 5.45602,8.02968 5.45938,13.17556 h 0.003 v 0.0127 0.015 h -0.003 c -0.001,2.07394 -0.34225,4.06989 -0.96812,5.93109 -0.1048,0.31239 -0.2146,0.61246 -0.32731,0.89909 v 0.003 c -0.53967,1.36595 -1.23721,2.65727 -2.07022,3.84671 l 10.8538,9.75542 0.007,0.006 0.0585,0.0544 0.004,0.004 c 0.6128,0.58332 0.94646,1.36447 0.98864,2.15717 0.041,0.78375 -0.20266,1.58541 -0.73859,2.22846 l -0.004,0.006 -0.0653,0.0757 -0.0127,0.0127 -0.0544,0.0597 -0.006,0.008 c -0.58409,0.61281 -1.36372,0.94572 -2.15718,0.98753 -0.78263,0.0415 -1.58503,-0.20154 -2.22845,-0.73822 l -0.006,-0.004 -0.0762,-0.0653 -0.0113,-0.008 -11.101233,-9.97748 c -0.328437,0.23139 -0.663575,0.45121 -1.002831,0.65872 -0.460171,0.28177 -0.93676,0.54713 -1.423068,0.78934 -2.500153,1.24728 -5.325376,1.94893 -8.312205,1.94893 v 0.003 h -0.0059 v -0.003 c -5.149932,-0.001 -9.81398,-2.09034 -13.188577,-5.46568 -3.370118,-3.3705 -5.456009,-8.03044 -5.459368,-13.17482 h -0.0027 v -0.0127 -0.006 h 0.0027 c 0.0016,-5.15006 2.090369,-9.81411 5.465713,-13.18871 3.370491,-3.36862 8.029688,-5.45563 13.175556,-5.45899 v -0.003 z m 0.0059,4.18372 v 0.003 h -0.0059 -0.01227 v -0.003 c -3.988204,0.003 -7.60315,1.62347 -10.220124,4.23933 -2.616599,2.61585 -4.238959,6.23453 -4.240079,10.22754 h 0.0027 v 0.006 0.0127 h -0.0027 c 0.0027,3.98816 1.62236,7.60124 4.239333,10.21896 2.615854,2.61697 6.234532,4.23933 10.22717,4.24008 v -0.003 h 0.0059 0.01227 v 0.003 c 3.988159,-0.003 7.601609,-1.62273 10.219332,-4.23933 2.616596,-2.61586 4.238966,-6.23342 4.239706,-10.22606 h -0.003 v -0.006 -0.0127 h 0.003 c -0.003,-3.98816 -1.62339,-7.6031 -4.238874,-10.22008 -2.615847,-2.61697 -6.233405,-4.23932 -10.226417,-4.24044 z"
         id="path9"
         style="stroke-width:0.373213" /></g></g></svg>
